<svg width="62" height="35" viewBox="0 0 62 35" fill="none" xmlns="http://www.w3.org/2000/svg">
<path d="M37.8774 33.2231H21.0619L21.4447 31.5825H38.2602L37.8774 33.2231Z" fill="black"/>
<path d="M45.6433 27.7651H22.7732L23.156 26.1245H46.0261L45.6433 27.7651Z" fill="black"/>
<path d="M51.1721 22.3073H25.011L25.3938 20.6667H51.5549L51.1721 22.3073Z" fill="black"/>
<path d="M57.3423 16.1969H23.3387C23.0988 16.1969 22.799 16.2668 22.4391 16.4064C22.1193 16.4995 21.9194 16.7322 21.8394 17.1045L18.3011 33.5807C18.2212 33.8135 18.0613 34.0229 17.8214 34.2091C17.5815 34.3952 17.3416 34.4883 17.1017 34.4883H0.849589C0.649686 34.4883 0.449782 34.3952 0.249879 34.2091C0.0499758 33.9764 -0.0299855 33.7436 0.00999516 33.5109L5.1675 9.7042C5.40738 8.49409 5.96711 7.30724 6.84669 6.14367C7.72626 4.98009 8.74577 3.95615 9.90521 3.07183C11.1046 2.14098 12.384 1.39629 13.7433 0.837773C15.1027 0.279258 16.4021 0 17.6415 0H60.8206C61.3803 0 61.7201 0.186171 61.8401 0.558514C62 0.884315 62.04 1.3032 61.96 1.81517L59.2014 14.7308C59.1214 15.0566 58.8415 15.3824 58.3618 15.7082C57.922 16.034 57.5821 16.1969 57.3423 16.1969Z" fill="black"/>
</svg>
